<svg width="346" height="99" viewBox="0 0 346 99" fill="none" xmlns="http://www.w3.org/2000/svg">
<path d="M344.078 87.5827C344.078 92.8585 339.673 97.1321 334.225 97.1321H11.7879C6.34238 97.1321 1.92223 92.8585 1.92223 87.5827V11.4297C1.92223 6.1564 6.34238 1.86792 11.7879 1.86792H334.222C339.673 1.86792 344.075 6.1564 344.075 11.4297L344.078 87.5827Z" fill="white"/>
<path d="M333.185 1.9831C339.118 1.9831 343.946 6.64538 343.946 12.375V86.625C343.946 92.3546 339.118 97.0169 333.185 97.0169H12.8148C6.88156 97.0169 2.05357 92.3546 2.05357 86.625V12.375C2.05357 6.64538 6.88156 1.9831 12.8148 1.9831H333.185ZM333.185 7.62939e-06H12.8148C5.76987 7.62939e-06 0 5.57185 0 12.375V86.625C0 93.4282 5.76987 99 12.8148 99H333.185C340.23 99 346 93.4282 346 86.625V12.375C346 5.57185 340.23 7.62939e-06 333.185 7.62939e-06Z" fill="#A6A6A6"/>
<path d="M77.217 48.9654C77.1426 40.9885 83.9806 37.1077 84.2933 36.927C80.4207 31.4746 74.4182 30.7296 72.3089 30.6702C67.2675 30.1579 62.3774 33.5833 59.8093 33.5833C57.19 33.5833 53.2353 30.7197 48.9731 30.8039C43.4884 30.8855 38.3573 33.9521 35.5432 38.714C29.7355 48.4234 34.0669 62.6918 39.6311 70.54C42.4145 74.3836 45.6669 78.6753 49.924 78.5243C54.0888 78.3585 55.6445 75.9602 60.6705 75.9602C65.6503 75.9602 67.1112 78.5243 71.4529 78.4278C75.9227 78.3585 78.7368 74.5668 81.4228 70.6885C84.6393 66.283 85.931 61.9443 85.9823 61.7216C85.8772 61.6869 77.3015 58.5263 77.217 48.9654Z" fill="black"/>
<path d="M69.0155 25.5074C71.2555 22.8022 72.7882 19.1219 72.3627 15.3871C69.1206 15.5257 65.066 17.5527 62.7311 20.1985C60.6653 22.5299 58.82 26.3513 59.2967 29.945C62.9387 30.2074 66.6781 28.1705 69.0155 25.5074Z" fill="black"/>
<path d="M125.713 24.7723C125.713 27.6853 124.809 29.8782 123.002 31.3508C121.328 32.7096 118.95 33.3902 115.869 33.3902C114.341 33.3902 113.034 33.3259 111.94 33.1972V17.2804C113.368 17.0577 114.905 16.9438 116.566 16.9438C119.501 16.9438 121.713 17.5601 123.204 18.7927C124.875 20.1861 125.713 22.1785 125.713 24.7723ZM122.881 24.844C122.881 22.9556 122.364 21.5077 121.328 20.4979C120.293 19.4906 118.781 18.9857 116.789 18.9857C115.943 18.9857 115.223 19.0402 114.626 19.154V31.2543C114.957 31.3038 115.561 31.3261 116.441 31.3261C118.496 31.3261 120.083 30.7741 121.2 29.6703C122.317 28.5664 122.881 26.9577 122.881 24.844Z" fill="black"/>
<path d="M140.73 27.3166C140.73 29.1109 140.199 30.5811 139.138 31.7344C138.026 32.92 136.552 33.5115 134.712 33.5115C132.938 33.5115 131.526 32.9447 130.473 31.8062C129.422 30.6702 128.897 29.2372 128.897 27.5096C128.897 25.7029 129.437 24.2203 130.524 23.0695C131.611 21.9186 133.072 21.3419 134.912 21.3419C136.685 21.3419 138.11 21.9087 139.189 23.0447C140.215 24.1486 140.73 25.5742 140.73 27.3166ZM137.944 27.4007C137.944 26.3241 137.703 25.4009 137.224 24.6312C136.66 23.7006 135.858 23.2353 134.814 23.2353C133.735 23.2353 132.915 23.7006 132.351 24.6312C131.87 25.4009 131.631 26.3389 131.631 27.4477C131.631 28.5244 131.872 29.4475 132.351 30.2173C132.933 31.1479 133.743 31.6132 134.789 31.6132C135.814 31.6132 136.619 31.1404 137.198 30.1925C137.695 29.4079 137.944 28.4773 137.944 27.4007Z" fill="black"/>
<path d="M160.864 21.5795L157.084 33.2467H154.624L153.058 28.1804C152.66 26.9156 152.337 25.6583 152.086 24.4109H152.038C151.804 25.693 151.481 26.9478 151.066 28.1804L149.403 33.2467H146.914L143.359 21.5795H146.12L147.486 27.126C147.816 28.4378 148.088 29.6876 148.306 30.8707H148.355C148.554 29.8955 148.885 28.6531 149.352 27.1508L151.066 21.582H153.255L154.898 27.032C155.295 28.361 155.618 29.6406 155.867 30.8732H155.941C156.123 29.6728 156.397 28.3932 156.761 27.032L158.227 21.582H160.864V21.5795Z" fill="black"/>
<path d="M174.789 33.2467H172.103V26.5641C172.103 24.5049 171.293 23.4753 169.668 23.4753C168.871 23.4753 168.228 23.7575 167.728 24.3243C167.233 24.891 166.982 25.5593 166.982 26.3241V33.2442H164.296V24.9133C164.296 23.8887 164.263 22.7774 164.199 21.5745H166.559L166.685 23.3986H166.759C167.072 22.8318 167.538 22.3641 168.151 21.9903C168.879 21.5547 169.694 21.3345 170.586 21.3345C171.713 21.3345 172.651 21.6859 173.397 22.3913C174.325 23.2551 174.789 24.5445 174.789 26.2573V33.2467V33.2467Z" fill="black"/>
<path d="M182.196 33.2467H179.513V16.2261H182.196V33.2467Z" fill="black"/>
<path d="M198.009 27.3166C198.009 29.1109 197.479 30.5811 196.418 31.7344C195.306 32.92 193.829 33.5115 191.992 33.5115C190.215 33.5115 188.803 32.9447 187.752 31.8062C186.702 30.6702 186.176 29.2372 186.176 27.5096C186.176 25.7029 186.717 24.2203 187.804 23.0695C188.89 21.9186 190.351 21.3419 192.189 21.3419C193.965 21.3419 195.388 21.9087 196.469 23.0447C197.494 24.1486 198.009 25.5742 198.009 27.3166ZM195.221 27.4007C195.221 26.3241 194.98 25.4009 194.501 24.6312C193.939 23.7006 193.135 23.2353 192.094 23.2353C191.013 23.2353 190.192 23.7006 189.631 24.6312C189.149 25.4009 188.911 26.3389 188.911 27.4477C188.911 28.5244 189.152 29.4475 189.631 30.2173C190.213 31.1479 191.023 31.6132 192.068 31.6132C193.094 31.6132 193.896 31.1404 194.475 30.1925C194.975 29.4079 195.221 28.4773 195.221 27.4007Z" fill="black"/>
<path d="M211.009 33.2467H208.597L208.397 31.9027H208.323C207.498 32.9744 206.321 33.5115 204.794 33.5115C203.653 33.5115 202.73 33.1576 202.036 32.4547C201.405 31.8161 201.09 31.0216 201.09 30.0787C201.09 28.6531 201.705 27.5665 202.943 26.8141C204.178 26.0617 205.916 25.693 208.154 25.7103V25.4925C208.154 23.9555 207.318 23.1883 205.644 23.1883C204.453 23.1883 203.402 23.4778 202.495 24.052L201.949 22.3492C203.071 21.6785 204.458 21.3419 206.093 21.3419C209.251 21.3419 210.834 22.9507 210.834 26.1682V30.4648C210.834 31.6305 210.893 32.5586 211.009 33.2467ZM208.22 29.2372V27.4378C205.257 27.3883 203.776 28.1729 203.776 29.7891C203.776 30.3979 203.945 30.8533 204.291 31.1578C204.637 31.4622 205.078 31.6132 205.603 31.6132C206.193 31.6132 206.744 31.4325 207.246 31.0736C207.751 30.7123 208.061 30.2544 208.177 29.6926C208.205 29.5663 208.22 29.4129 208.22 29.2372Z" fill="black"/>
<path d="M226.271 33.2466H223.888L223.762 31.3731H223.688C222.927 32.7987 221.63 33.5115 219.807 33.5115C218.352 33.5115 217.139 32.9596 216.178 31.8557C215.217 30.7519 214.738 29.3188 214.738 27.5591C214.738 25.6707 215.258 24.1411 216.304 22.9729C217.316 21.8839 218.557 21.3394 220.033 21.3394C221.655 21.3394 222.791 21.8666 223.437 22.9234H223.488V16.2261H226.176V30.1034C226.176 31.2394 226.207 32.2863 226.271 33.2466ZM223.488 28.3263V26.381C223.488 26.0444 223.462 25.7722 223.414 25.5643C223.262 24.9406 222.937 24.4158 222.442 23.9926C221.942 23.5694 221.34 23.3565 220.646 23.3565C219.643 23.3565 218.859 23.7402 218.282 24.5099C217.711 25.2796 217.421 26.2622 217.421 27.4626C217.421 28.6159 217.696 29.5515 218.247 30.2717C218.828 31.0389 219.613 31.4226 220.594 31.4226C221.476 31.4226 222.181 31.1033 222.716 30.4623C223.234 29.8707 223.488 29.1579 223.488 28.3263Z" fill="black"/>
<path d="M249.243 27.3166C249.243 29.1109 248.713 30.5811 247.651 31.7344C246.539 32.92 245.068 33.5115 243.225 33.5115C241.454 33.5115 240.042 32.9447 238.986 31.8062C237.935 30.6702 237.41 29.2372 237.41 27.5096C237.41 25.7029 237.951 24.2203 239.037 23.0695C240.124 21.9186 241.585 21.3419 243.428 21.3419C245.199 21.3419 246.626 21.9087 247.703 23.0447C248.728 24.1486 249.243 25.5742 249.243 27.3166ZM246.46 27.4007C246.46 26.3241 246.219 25.4009 245.739 24.6312C245.173 23.7006 244.373 23.2353 243.328 23.2353C242.251 23.2353 241.431 23.7006 240.865 24.6312C240.383 25.4009 240.145 26.3389 240.145 27.4477C240.145 28.5244 240.385 29.4475 240.865 30.2173C241.447 31.1479 242.256 31.6132 243.302 31.6132C244.327 31.6132 245.135 31.1404 245.714 30.1925C246.209 29.4079 246.46 28.4773 246.46 27.4007Z" fill="black"/>
<path d="M263.685 33.2467H261.002V26.5641C261.002 24.5049 260.192 23.4753 258.565 23.4753C257.767 23.4753 257.124 23.7575 256.627 24.3243C256.13 24.891 255.881 25.5593 255.881 26.3241V33.2442H253.193V24.9133C253.193 23.8887 253.162 22.7774 253.098 21.5745H255.456L255.581 23.3986H255.656C255.971 22.8318 256.437 22.3641 257.047 21.9903C257.778 21.5547 258.59 21.3345 259.485 21.3345C260.61 21.3345 261.548 21.6859 262.294 22.3913C263.224 23.2551 263.685 24.5445 263.685 26.2573V33.2467V33.2467Z" fill="black"/>
<path d="M281.762 23.5224H278.804V29.1902C278.804 30.6306 279.33 31.3508 280.37 31.3508C280.852 31.3508 281.252 31.3112 281.567 31.2296L281.636 33.1972C281.106 33.3902 280.409 33.4868 279.55 33.4868C278.489 33.4868 277.664 33.1749 277.067 32.5512C276.467 31.9275 276.17 30.8781 276.17 29.4055V23.5224H274.404V21.5795H276.17V19.4411L278.802 18.6739V21.5771H281.759V23.5224H281.762Z" fill="black"/>
<path d="M295.981 33.2467H293.293V26.6137C293.293 24.5223 292.483 23.4753 290.86 23.4753C289.615 23.4753 288.764 24.0817 288.297 25.2945C288.218 25.5494 288.172 25.8613 288.172 26.2276V33.2442H285.488V16.2261H288.172V23.2576H288.223C289.069 21.978 290.281 21.3394 291.852 21.3394C292.965 21.3394 293.885 21.6909 294.615 22.3962C295.525 23.2749 295.981 24.5817 295.981 26.3092V33.2467V33.2467Z" fill="black"/>
<path d="M310.649 26.8612C310.649 27.3265 310.613 27.7175 310.549 28.0368H302.494C302.53 29.1901 302.914 30.0688 303.66 30.6776C304.342 31.2221 305.221 31.4944 306.297 31.4944C307.489 31.4944 308.576 31.3112 309.555 30.9424L309.975 32.7442C308.829 33.2244 307.481 33.4645 305.92 33.4645C304.049 33.4645 302.576 32.9323 301.51 31.8681C300.438 30.8038 299.908 29.3758 299.908 27.5839C299.908 25.8241 300.402 24.3589 301.399 23.1907C302.44 21.9433 303.847 21.3196 305.623 21.3196C307.361 21.3196 308.681 21.9433 309.573 23.1907C310.293 24.1807 310.649 25.4059 310.649 26.8612ZM308.086 26.1904C308.107 25.4207 307.93 24.7574 307.566 24.1981C307.099 23.4778 306.389 23.1165 305.428 23.1165C304.552 23.1165 303.837 23.4679 303.291 24.1733C302.845 24.7351 302.581 25.4059 302.494 26.1904H308.086Z" fill="black"/>
<path d="M137.49 77.9724H131.67L128.481 68.2976H117.399L114.362 77.9724H108.695L119.675 45.0351H126.457L137.49 77.9724ZM127.52 64.2386L124.637 55.638C124.332 54.7594 123.76 52.6903 122.917 49.4332H122.815C122.479 50.834 121.938 52.9031 121.195 55.638L118.363 64.2386H127.52V64.2386Z" fill="black"/>
<path d="M165.726 65.8053C165.726 69.8445 164.596 73.0373 162.335 75.3811C160.311 77.4675 157.796 78.5095 154.795 78.5095C151.556 78.5095 149.228 77.3858 147.811 75.1385H147.709V87.6497H142.244V62.0408C142.244 59.5015 142.175 56.8953 142.042 54.2223H146.848L147.152 57.9868H147.255C149.077 55.1504 151.843 53.7347 155.554 53.7347C158.455 53.7347 160.877 54.8411 162.815 57.0562C164.757 59.2738 165.726 62.1893 165.726 65.8053ZM160.16 65.9984C160.16 63.6867 159.621 61.781 158.54 60.2811C157.358 58.7169 155.772 57.9348 153.783 57.9348C152.435 57.9348 151.21 58.3704 150.115 59.2292C149.018 60.0955 148.301 61.2266 147.965 62.6274C147.796 63.2808 147.711 63.8154 147.711 64.2362V68.1962C147.711 69.9237 148.26 71.3815 149.357 72.572C150.454 73.7624 151.879 74.3564 153.632 74.3564C155.69 74.3564 157.292 73.5892 158.437 72.0596C159.585 70.5276 160.16 68.508 160.16 65.9984Z" fill="black"/>
<path d="M194.014 65.8053C194.014 69.8445 192.883 73.0373 190.62 75.3811C188.598 77.4675 186.084 78.5095 183.083 78.5095C179.843 78.5095 177.516 77.3858 176.101 75.1385H175.999V87.6497H170.534V62.0408C170.534 59.5015 170.465 56.8953 170.332 54.2223H175.138L175.443 57.9868H175.545C177.365 55.1504 180.13 53.7347 183.844 53.7347C186.743 53.7347 189.165 54.8411 191.107 57.0562C193.042 59.2738 194.014 62.1893 194.014 65.8053ZM188.447 65.9984C188.447 63.6867 187.906 61.781 186.825 60.2811C185.643 58.7169 184.062 57.9348 182.07 57.9348C180.72 57.9348 179.497 58.3704 178.4 59.2292C177.303 60.0955 176.588 61.2266 176.252 62.6274C176.086 63.2808 175.999 63.8154 175.999 64.2362V68.1962C175.999 69.9237 176.547 71.3815 177.639 72.572C178.736 73.76 180.161 74.3564 181.919 74.3564C183.977 74.3564 185.579 73.5892 186.725 72.0596C187.873 70.5276 188.447 68.508 188.447 65.9984Z" fill="black"/>
<path d="M225.641 68.7357C225.641 71.5374 224.633 73.8169 222.611 75.5766C220.389 77.4997 217.296 78.46 213.321 78.46C209.65 78.46 206.708 77.7769 204.481 76.4082L205.747 72.0101C208.146 73.411 210.778 74.1139 213.646 74.1139C215.704 74.1139 217.306 73.6634 218.457 72.7675C219.602 71.8715 220.174 70.6687 220.174 69.1688C220.174 67.8323 219.702 66.7062 218.757 65.7929C217.816 64.8797 216.245 64.0307 214.051 63.2462C208.079 61.0954 205.096 57.9447 205.096 53.8016C205.096 51.0939 206.142 48.8738 208.236 47.1463C210.322 45.4163 213.105 44.5525 216.586 44.5525C219.689 44.5525 222.268 45.0747 224.326 46.1167L222.96 50.4182C221.038 49.4084 218.864 48.9035 216.432 48.9035C214.51 48.9035 213.008 49.3614 211.931 50.2722C211.022 51.0865 210.565 52.079 210.565 53.2546C210.565 54.5564 211.086 55.6331 212.131 56.4795C213.041 57.2616 214.694 58.1081 217.093 59.0213C220.028 60.1623 222.183 61.4963 223.57 63.0259C224.951 64.5505 225.641 66.4587 225.641 68.7357Z" fill="black"/>
<path d="M243.707 58.1823H237.684V69.7133C237.684 72.6462 238.745 74.1114 240.872 74.1114C241.849 74.1114 242.659 74.0297 243.3 73.8664L243.451 77.8734C242.374 78.262 240.957 78.4575 239.201 78.4575C237.043 78.4575 235.357 77.8214 234.139 76.5517C232.927 75.2796 232.317 73.1461 232.317 70.1489V58.1773H228.729V54.2173H232.317V49.8688L237.684 48.3046V54.2173H243.707V58.1823Z" fill="black"/>
<path d="M270.882 65.9018C270.882 69.5524 269.801 72.5497 267.642 74.8935C265.379 77.3066 262.376 78.5095 258.631 78.5095C255.022 78.5095 252.149 77.3536 250.007 75.042C247.864 72.7303 246.793 69.8123 246.793 66.2953C246.793 62.615 247.895 59.6005 250.107 57.2566C252.313 54.9103 255.292 53.7372 259.036 53.7372C262.645 53.7372 265.549 54.893 267.74 57.2071C269.836 59.452 270.882 62.3502 270.882 65.9018ZM265.213 66.0726C265.213 63.8822 264.728 62.0037 263.747 60.437C262.601 58.5412 260.963 57.5957 258.841 57.5957C256.645 57.5957 254.976 58.5436 253.831 60.437C252.849 62.0062 252.365 63.9144 252.365 66.1716C252.365 68.362 252.849 70.2405 253.831 71.8047C255.012 73.7005 256.663 74.646 258.793 74.646C260.879 74.646 262.517 73.6807 263.698 71.7552C264.705 70.1588 265.213 68.2605 265.213 66.0726Z" fill="black"/>
<path d="M288.643 58.8629C288.103 58.7664 287.526 58.7169 286.921 58.7169C284.999 58.7169 283.512 59.4173 282.467 60.8207C281.557 62.0582 281.101 63.6224 281.101 65.5108V77.9724H275.639L275.69 61.7018C275.69 58.9644 275.621 56.4721 275.485 54.2248H280.245L280.445 58.7689H280.596C281.172 57.2072 282.082 55.9499 283.328 55.0069C284.545 54.158 285.86 53.7347 287.277 53.7347C287.782 53.7347 288.239 53.7694 288.643 53.8313V58.8629Z" fill="black"/>
<path d="M313.081 64.9737C313.081 65.9192 313.017 66.7161 312.881 67.367H296.489C296.553 69.7133 297.345 71.5077 298.867 72.7452C300.249 73.8515 302.035 74.4059 304.229 74.4059C306.656 74.4059 308.87 74.0322 310.862 73.2823L311.718 76.9453C309.391 77.9254 306.643 78.413 303.473 78.413C299.659 78.413 296.666 77.3289 294.487 75.1633C292.314 72.9977 291.224 70.0895 291.224 66.4414C291.224 62.8601 292.237 59.8777 294.264 57.4992C296.386 54.9599 299.254 53.6902 302.863 53.6902C306.407 53.6902 309.091 54.9599 310.913 57.4992C312.356 59.5163 313.081 62.0111 313.081 64.9737ZM307.871 63.605C307.907 62.0408 307.55 60.6895 306.81 59.5485C305.864 58.0808 304.411 57.3482 302.455 57.3482C300.669 57.3482 299.216 58.0635 298.106 59.499C297.196 60.64 296.655 62.0087 296.489 63.6026H307.871V63.605Z" fill="black"/>
</svg>
